<svg width="209" height="209" viewBox="0 0 209 209" fill="none" xmlns="http://www.w3.org/2000/svg">
<g opacity="0.1">
<path d="M123.598 88.452C132.297 99.0044 130.794 114.611 120.242 123.309C109.689 132.008 94.0833 130.505 85.3845 119.953C76.6858 109.401 78.1885 93.7943 88.7409 85.0956C99.2934 76.3968 114.9 77.8995 123.598 88.452Z" fill="white"/>
<path fill-rule="evenodd" clip-rule="evenodd" d="M170.644 184.451C211.072 151.125 219.873 93.6597 193.378 50.1844L146.377 88.9289C152.667 106.179 147.817 126.251 132.842 138.595C117.868 150.939 97.2391 151.87 81.5063 142.404L34.5054 181.149C72.1264 215.453 130.216 217.778 170.644 184.451ZM62.6057 119.476L15.6048 158.221C-10.8906 114.745 -2.08867 57.2797 38.3393 23.9535C78.7673 -9.37274 136.856 -7.04805 174.477 27.2561L127.477 66.0006C111.744 56.5347 91.1152 57.4659 76.1405 69.8101C61.1658 82.1542 56.3156 102.226 62.6057 119.476ZM123.598 88.452C132.297 99.0044 130.794 114.611 120.242 123.309C109.689 132.008 94.0833 130.505 85.3845 119.953C76.6858 109.401 78.1885 93.7943 88.7409 85.0956C99.2934 76.3968 114.9 77.8995 123.598 88.452Z" fill="white"/>
</g>
</svg>
