<svg width="23" height="23" viewBox="0 0 23 23" fill="none" xmlns="http://www.w3.org/2000/svg">
<g clip-path="url(#clip0_346_14324)">
<path d="M12.3464 3.05942L10.7836 4.34768C9.31087 3.99764 7.70006 4.29762 6.44448 5.33264C5.1889 6.36766 4.58708 7.89163 4.64967 9.4041L3.08689 10.6924C2.23593 11.3938 2.11432 12.6568 2.8158 13.5078L9.17658 21.224C9.87805 22.075 11.141 22.1966 11.992 21.4951L21.2515 13.8622C22.1024 13.1607 22.224 11.8977 21.5226 11.0468L15.1618 3.33051C14.4603 2.47955 13.1973 2.35794 12.3464 3.05942ZM7.08056 6.10426C8.78513 4.69913 11.3062 4.94188 12.7114 6.64645C14.1165 8.35102 13.8738 10.8721 12.1692 12.2773C10.4646 13.6824 7.94351 13.4396 6.53837 11.7351C5.13324 10.0305 5.37599 7.5094 7.08056 6.10426ZM20.7509 11.6828C21.1022 12.1089 21.0415 12.7393 20.6154 13.0905L11.3559 20.7235C10.9298 21.0747 10.2994 21.014 9.9482 20.5879L3.58742 12.8717C3.23619 12.4456 3.29689 11.8152 3.72297 11.464L4.82157 10.5584C5.00391 11.2031 5.31394 11.8219 5.76675 12.3712C7.52034 14.4984 10.678 14.8025 12.8053 13.0489C14.9325 11.2953 15.2366 8.13764 13.483 6.01037C13.0302 5.46107 12.4819 5.03866 11.8839 4.73666L12.9825 3.83104C13.4085 3.47981 14.0389 3.54051 14.3902 3.96659L20.7509 11.6828ZM11.5331 11.5056C12.1714 10.9795 12.2626 10.0324 11.7364 9.39408C11.4597 9.05842 11.0666 8.87871 10.6634 8.85588L9.98985 6.55311C9.91255 6.28838 9.63484 6.13621 9.36963 6.2139C9.10562 6.2906 8.95253 6.56866 9.03042 6.83412L9.7041 9.13801C8.80312 9.78716 9.03692 10.8357 9.42155 11.3023C9.94771 11.9406 10.8948 12.0318 11.5331 11.5056ZM10.2609 9.96239C10.4741 9.78667 10.7891 9.817 10.9648 10.0302C11.1405 10.2433 11.1102 10.5583 10.897 10.734C10.6839 10.9097 10.3689 10.8794 10.1932 10.6662C10.0175 10.4531 10.0478 10.1381 10.2609 9.96239Z" fill="#212121"/>
</g>
<defs>
<clipPath id="clip0_346_14324">
<rect width="16" height="16" fill="white" transform="translate(0.271484 10.4213) rotate(-39.5)"/>
</clipPath>
</defs>
</svg>
